# xmcd
#
# Track frame offsets:
#	150
#	20837
#	38420
#	58957
#	73730
#	83707
#	102630
#	117800
#	135695
#	167502
#	175015
#	192010
#
# Disc length: 2834 seconds
#
# Revision: 1
# Processed by: cddbd v1.5.1PL0 Copyright (c) Steve Scherf et al.
# Submitted via: audiograbber 1.83.01
#
DISCID=9f0b100c
DTITLE=Various Artist - Blues Across America - The Los Angeles Scene
DYEAR=2000
DGENRE=Blues
TTITLE0=Joe Huston  - If You See My Baby
TTITLE1=Joe Huston  - Sweet Home Chicago
TTITLE2=Joe Huston  - All I Need Is You
TTITLE3=Johnny Dyer - I Wonder Why
TTITLE4=Johnny Dyer - 'Cross Town
TTITLE5=Johnny Dyer - Real Easy Baby
TTITLE6=Finis Tasby - Reconsider Baby
TTITLE7=Finis Tasby - Kansas City
TTITLE8=Finis Tasby - Victim Of Circumstance
TTITLE9=Kirk "Eli" Fletcher - Swingin' Gate
TTITLE10=Kirk "Eli" Fletcher - Ninety Nine
TTITLE11=Kirk "Eli" Fletcher - Eli's Shuffle
EXTD=
EXTT0=
EXTT1=
EXTT2=
EXTT3=
EXTT4=
EXTT5=
EXTT6=
EXTT7=
EXTT8=
EXTT9=
EXTT10=
EXTT11=
PLAYORDER=
